<?xml version="1.0" encoding="iso-8859-1"?>
<!-- Generator: Adobe Illustrator 19.0.0, SVG Export Plug-In . SVG Version: 6.00 Build 0)  -->
<svg version="1.1" id="Layer_1" xmlns="http://www.w3.org/2000/svg" xmlns:xlink="http://www.w3.org/1999/xlink" x="0px" y="0px"
	 viewBox="0 0 512 512" style="enable-background:new 0 0 512 512;" xml:space="preserve">
<path style="fill:#7D684D;" d="M16.696,51.609c0-5.379,3.847-9.988,9.139-10.951L248.444,0.183
	c6.833-1.242,13.122,4.007,13.122,10.951v443.011H16.696V51.609z"/>
<path style="fill:#E3D7B1;" d="M16.696,55.652h281.03V512H16.696V55.652z"/>
<path style="fill:#57544C;" d="M182.288,445.218c6.147,0,11.13,4.983,11.13,11.13c0,6.147-4.983,11.13-11.13,11.13h-50.154
	c-6.147,0-11.13-4.983-11.13-11.13c0-6.147,4.983-11.13,11.13-11.13H182.288z"/>
<path style="fill:#939B48;" d="M157.212,111.305c33.806,0,61.216,19.933,61.216,44.522s-27.409,44.522-61.216,44.522
	c-33.81,0-61.218-19.933-61.218-44.522S123.402,111.305,157.212,111.305L157.212,111.305z"/>
<path style="fill:#612324;" d="M157.212,133.565c15.367,0,27.825,9.966,27.825,22.261c0,12.295-12.458,22.261-27.825,22.261
	c-15.368,0-27.827-9.966-27.827-22.261C129.385,143.532,141.844,133.565,157.212,133.565L157.212,133.565z"/>
<path style="fill:#5D4B36;" d="M460.462,500.386H263.017v-46.457h197.444v46.457H460.462z"/>
<path style="fill:#AA8144;" d="M495.304,454.17v5.808c0,3.073-2.492,5.565-5.565,5.565h-256c-3.073,0-5.565-2.492-5.565-5.565
	v-5.808c0-68.664,54.067-124.695,121.951-127.854v-24.813c0-6.414,5.2-11.615,11.615-11.615s11.615,5.2,11.615,11.615v24.813
	C441.237,329.475,495.304,385.506,495.304,454.17z"/>
<path style="fill:#C6984F;" d="M465.358,371.901c-23.48,27.956-58.689,45.732-98.054,45.732h-11.13
	c-39.365,0-74.574-17.775-98.054-45.732c23.48-27.955,58.689-45.732,98.054-45.732h11.13
	C406.669,326.17,441.878,343.946,465.358,371.901z"/>
<path style="fill:#AA8144;" d="M495.304,499.901v0.968c0,6.147-4.983,11.13-11.13,11.13h-244.87c-6.147,0-11.13-4.983-11.13-11.13
	v-0.968c0-6.147,4.983-11.13,11.13-11.13h244.87C490.321,488.771,495.304,493.755,495.304,499.901z"/>
<path style="fill:#C6984F;" d="M495.304,500.386h-267.13c0-6.414,5.2-11.615,11.615-11.615H483.69
	C490.104,488.771,495.304,493.971,495.304,500.386z"/>
<g>
</g>
<g>
</g>
<g>
</g>
<g>
</g>
<g>
</g>
<g>
</g>
<g>
</g>
<g>
</g>
<g>
</g>
<g>
</g>
<g>
</g>
<g>
</g>
<g>
</g>
<g>
</g>
<g>
</g>
</svg>
